# xmcd CD database file
#
# Track frame offsets:
#	150
#	26307
#	70291
#	106453
#	127725
#	155500
#	203069
#	230616
#	253891
#	283893
#
# Disc length: 4168 seconds
#
# Revision: 0
# Processed by: cddbd v1.5.2PL0 Copyright (c) Steve Scherf et al.
# Submitted via: CDex 1.70beta2
#
DISCID=8b10460a
DTITLE=Strata Institue - Transmigration
DYEAR=1991
DGENRE=Jazz
TTITLE0=3 against 2
TTITLE1=Mr. Lucky
TTITLE2=Speake
TTITLE3=Knowledge of cult
TTITLE4=If you could see me now
TTITLE5=Minor step
TTITLE6=Kahn
TTITLE7=Hey Jim !
TTITLE8=It's you
TTITLE9=Thebes
EXTD=YEAR: 1991
EXTT0=
EXTT1=
EXTT2=
EXTT3=
EXTT4=
EXTT5=
EXTT6=
EXTT7=
EXTT8=
EXTT9=
PLAYORDER=
